# xmcd CD database file
#
# Track frame offsets:
#	150
#	17967
#	38173
#	56938
#	74729
#	95116
#	115445
#	130775
#
# Disc length: 2009 seconds
#
# Revision: 0
# Processed by: cddbd v1.5.1PL0 Copyright (c) Steve Scherf et al.
# Submitted via: CDex 1.50
#
DISCID=7c07d708
DTITLE=El Gran Combo - Nuestra Musica
DYEAR=1985
DGENRE=Salsa
TTITLE0=La fiesta de Pilito
TTITLE1=No hay cama pa' tanta gente
TTITLE2=El arbolito
TTITLE3=Desenfunda
TTITLE4=El jibaro listo
TTITLE5=El alma de las fiestas
TTITLE6=Asalto navideno
TTITLE7=Cosas del campo
EXTD=YEAR: 1985
EXTT0=
EXTT1=
EXTT2=
EXTT3=
EXTT4=
EXTT5=
EXTT6=
EXTT7=
PLAYORDER=
